<?xml version="1.0" encoding="iso-8859-1"?>
<!-- Generator: Adobe Illustrator 18.0.0, SVG Export Plug-In . SVG Version: 6.00 Build 0)  -->
<!DOCTYPE svg PUBLIC "-//W3C//DTD SVG 1.1//EN" "http://www.w3.org/Graphics/SVG/1.1/DTD/svg11.dtd">
<svg xmlns="http://www.w3.org/2000/svg" xmlns:xlink="http://www.w3.org/1999/xlink" version="1.1" id="Capa_1" x="0px" y="0px" viewBox="0 0 296.441 296.441" style="enable-background:new 0 0 296.441 296.441;" xml:space="preserve" width="512px" height="512px">
<g>
	<path d="M291.516,46.107c-24.174-4.405-48.788-4.979-73.151-1.699c-50.9,6.848-97.039,29.701-133.428,66.09   c-35.353,35.352-57.925,79.908-65.462,129.093l-14.542,2.634c-3.261,0.59-5.425,3.712-4.835,6.973   c0.525,2.899,3.052,4.932,5.897,4.932c0.354,0,0.715-0.032,1.076-0.097l18.688-3.385c10.138-1.371,20.271-3.427,30.12-6.113   c23.783-6.487,46.071-18.871,64.452-35.814c18.067-16.654,32.446-37.765,41.582-61.052c7.113-18.135,17.765-34.375,31.656-48.266   c7.313-7.313,15.427-13.828,24.118-19.365c21.754-13.861,46.955-21.478,72.88-22.028c3.08-0.065,5.609-2.452,5.854-5.522   C296.666,49.416,294.546,46.659,291.516,46.107z M211.239,69.916c-9.426,6.005-18.226,13.07-26.154,21   c-15.068,15.067-26.623,32.687-34.344,52.369c-17.313,44.131-53.956,77.653-98.021,89.671c-3.528,0.962-7.095,1.835-10.686,2.624   c17.216-18.19,38.175-42.063,53.679-63.484c1.943-2.685,1.342-6.436-1.343-8.378c-2.682-1.942-6.436-1.342-8.378,1.342   c-14.17,19.579-34.349,42.82-51.835,61.375c9.105-40.705,29.361-77.55,59.263-107.452C127.935,84.47,171.693,62.794,219.964,56.3   c7.781-1.047,15.585-1.68,23.395-1.899C232.123,58.286,221.338,63.481,211.239,69.916z" fill="#91DC5A"/>
</g>
<g>
</g>
<g>
</g>
<g>
</g>
<g>
</g>
<g>
</g>
<g>
</g>
<g>
</g>
<g>
</g>
<g>
</g>
<g>
</g>
<g>
</g>
<g>
</g>
<g>
</g>
<g>
</g>
<g>
</g>
</svg>
